<svg width="14" height="14" viewBox="0 0 14 14" fill="none" xmlns="http://www.w3.org/2000/svg">
<path fill-rule="evenodd" clip-rule="evenodd" d="M10.9377 6.27083V4.66667H11.8127V6.27083H13.4168V7.14583H11.8127V8.75H10.9377V7.14583H9.3335V6.27083H10.9377ZM4.56883 7.20417C4.1395 6.6955 3.79183 5.74583 3.79183 5.08083V4.08333C3.79183 3.46449 4.03766 2.871 4.47525 2.43342C4.91283 1.99583 5.50632 1.75 6.12516 1.75C6.744 1.75 7.33749 1.99583 7.77508 2.43342C8.21266 2.871 8.4585 3.46449 8.4585 4.08333V5.08083C8.4585 5.74583 8.1085 6.69842 7.6815 7.20533L7.47091 7.455C7.12675 7.86275 7.23408 8.38133 7.71533 8.61583L11.017 10.227C11.3757 10.402 11.6668 10.8646 11.6668 11.2671V11.6678C11.6665 11.8224 11.6048 11.9706 11.4954 12.0798C11.3859 12.1889 11.2375 12.2502 11.0829 12.25H1.16683C1.01232 12.25 0.864125 12.1887 0.754762 12.0796C0.6454 11.9704 0.583805 11.8223 0.583496 11.6678V11.2671C0.583496 10.8675 0.873996 10.402 1.23333 10.2264L4.535 8.61525C5.01391 8.38192 5.12533 7.86392 4.78 7.45442L4.56883 7.20417Z" fill="url(#paint0_linear_765_1635)"/>
<defs>
<linearGradient id="paint0_linear_765_1635" x1="7.00016" y1="1.75" x2="7.00016" y2="12.25" gradientUnits="userSpaceOnUse">
<stop stop-color="#AD43DB"/>
<stop offset="1" stop-color="#41B1C8"/>
</linearGradient>
</defs>
</svg>
