<svg width="24" height="24" viewBox="0 0 24 24" fill="none" xmlns="http://www.w3.org/2000/svg">
<rect width="24" height="24" rx="4" fill="#488EF7"/>
<path fill-rule="evenodd" clip-rule="evenodd" d="M17.0625 11.0625V9H18.1875V11.0625H20.25V12.1875H18.1875V14.25H17.0625V12.1875H15V11.0625H17.0625ZM8.874 12.2625C8.322 11.6085 7.875 10.3875 7.875 9.5325V8.25C7.875 7.45435 8.19107 6.69129 8.75368 6.12868C9.31629 5.56607 10.0794 5.25 10.875 5.25C11.6706 5.25 12.4337 5.56607 12.9963 6.12868C13.5589 6.69129 13.875 7.45435 13.875 8.25V9.5325C13.875 10.3875 13.425 11.6123 12.876 12.264L12.6053 12.585C12.1628 13.1092 12.3007 13.776 12.9195 14.0775L17.1645 16.149C17.6257 16.374 18 16.9688 18 17.4862V18.0015C17.9996 18.2003 17.9203 18.3908 17.7795 18.5311C17.6388 18.6715 17.448 18.7502 17.2493 18.75H4.5C4.30135 18.75 4.11081 18.6712 3.9702 18.5309C3.82959 18.3905 3.7504 18.2002 3.75 18.0015V17.4862C3.75 16.9725 4.1235 16.374 4.5855 16.1483L8.8305 14.0767C9.44625 13.7767 9.5895 13.1108 9.1455 12.5843L8.874 12.2625Z" fill="white"/>
</svg>
