<svg width="16" height="16" viewBox="0 0 16 16" fill="none" xmlns="http://www.w3.org/2000/svg">
<g clip-path="url(#clip0_110_112)">
<path d="M8.96875 9C8.53646 8.67708 8.07031 8.42969 7.57031 8.25781C7.07031 8.08594 6.54688 8 6 8C5.54167 8 5.09896 8.0599 4.67188 8.17969C4.24479 8.29948 3.84635 8.46615 3.47656 8.67969C3.10677 8.89323 2.77083 9.15365 2.46875 9.46094C2.16667 9.76823 1.90625 10.1068 1.6875 10.4766C1.46875 10.8464 1.29948 11.2448 1.17969 11.6719C1.0599 12.099 1 12.5417 1 13H0C0 12.375 0.0911458 11.7734 0.273438 11.1953C0.455729 10.6172 0.71875 10.0833 1.0625 9.59375C1.40625 9.10417 1.8125 8.66927 2.28125 8.28906C2.75 7.90885 3.28125 7.60938 3.875 7.39062C3.58333 7.20833 3.32292 6.99479 3.09375 6.75C2.86458 6.50521 2.66667 6.23438 2.5 5.9375C2.33333 5.64062 2.21094 5.33073 2.13281 5.00781C2.05469 4.6849 2.01042 4.34896 2 4C2 3.44792 2.10417 2.92969 2.3125 2.44531C2.52083 1.96094 2.80729 1.53906 3.17188 1.17969C3.53646 0.820312 3.96094 0.533854 4.44531 0.320312C4.92969 0.106771 5.44792 0 6 0C6.55208 0 7.07031 0.104167 7.55469 0.3125C8.03906 0.520833 8.46094 0.807292 8.82031 1.17188C9.17969 1.53646 9.46615 1.96094 9.67969 2.44531C9.89323 2.92969 10 3.44792 10 4C10 4.34375 9.95833 4.67969 9.875 5.00781C9.79167 5.33594 9.66667 5.64583 9.5 5.9375C9.33333 6.22917 9.13542 6.4974 8.90625 6.74219C8.67708 6.98698 8.41406 7.20312 8.11719 7.39062C8.42969 7.51042 8.72396 7.65104 9 7.8125V9H8.96875ZM3 4C3 4.41667 3.07812 4.80469 3.23438 5.16406C3.39062 5.52344 3.60417 5.84115 3.875 6.11719C4.14583 6.39323 4.46354 6.60938 4.82812 6.76562C5.19271 6.92188 5.58333 7 6 7C6.41146 7 6.79948 6.92188 7.16406 6.76562C7.52865 6.60938 7.84635 6.39583 8.11719 6.125C8.38802 5.85417 8.60417 5.53646 8.76562 5.17188C8.92708 4.80729 9.00521 4.41667 9 4C9 3.58854 8.92188 3.20052 8.76562 2.83594C8.60938 2.47135 8.39583 2.15365 8.125 1.88281C7.85417 1.61198 7.53385 1.39583 7.16406 1.23438C6.79427 1.07292 6.40625 0.994792 6 1C5.58333 1 5.19531 1.07812 4.83594 1.23438C4.47656 1.39062 4.15885 1.60417 3.88281 1.875C3.60677 2.14583 3.39062 2.46615 3.23438 2.83594C3.07812 3.20573 3 3.59375 3 4ZM16 10V16H8V10H10V8H14V10H16ZM11 10H13V9H11V10ZM15 13H14V14H13V13H11V14H10V13H9V15H15V13ZM15 11H9V12H15V11Z" fill="white"/>
</g>
<defs>
<clipPath id="clip0_110_112">
<rect width="16" height="16" fill="white"/>
</clipPath>
</defs>
</svg>
