<svg width="16" height="20" viewBox="0 0 16 20" fill="none" xmlns="http://www.w3.org/2000/svg">
<path d="M7.69474 9.53598L5.97442 10.8804C5.87841 10.9441 5.78608 10.9452 5.6974 10.8837C5.60873 10.8221 5.58272 10.7415 5.61936 10.6418L6.27011 8.45982L4.55748 7.21767C4.46588 7.15391 4.44206 7.06963 4.48603 6.96484C4.53 6.86004 4.60182 6.80728 4.70149 6.80655H6.83293L7.48368 4.63773C7.52032 4.53806 7.59068 4.48823 7.69474 4.48823C7.7988 4.48823 7.86915 4.53806 7.9058 4.63773L8.55765 6.80655H10.6814C10.7818 6.80655 10.8551 6.85894 10.9012 6.96374C10.9474 7.06853 10.9243 7.15281 10.832 7.21657L9.11387 8.45982L9.76462 10.6418C9.80127 10.7415 9.77525 10.8221 9.68658 10.8837C9.5979 10.9452 9.50557 10.9441 9.40957 10.8804L7.69474 9.53598ZM7.69474 18.6455L3.33842 19.947C3.05628 20.0474 2.79576 20.0052 2.55685 19.8205C2.31795 19.6359 2.1985 19.3955 2.1985 19.0994V13.0492C1.50231 12.3647 0.961842 11.563 0.577106 10.644C0.192369 9.72505 0 8.74196 0 7.69474C0 5.54974 0.746023 3.73122 2.23807 2.23917C3.73012 0.747123 5.54901 0.000733372 7.69474 5.39376e-07C9.84047 -0.000732293 11.6594 0.745291 13.1514 2.23807C14.6435 3.73085 15.3895 5.54974 15.3895 7.69474C15.3895 8.74196 15.1971 9.72505 14.8124 10.644C14.4276 11.563 13.8872 12.3643 13.191 13.0481V19.0983C13.191 19.3944 13.0715 19.6348 12.8326 19.8195C12.5937 20.0041 12.3336 20.0463 12.0522 19.9459L7.69474 18.6455ZM7.69474 14.2902C9.52682 14.2902 11.0841 13.649 12.3665 12.3665C13.649 11.0841 14.2902 9.52682 14.2902 7.69474C14.2902 5.86266 13.649 4.30539 12.3665 3.02293C11.0841 1.74048 9.52682 1.09925 7.69474 1.09925C5.86266 1.09925 4.30539 1.74048 3.02293 3.02293C1.74048 4.30539 1.09925 5.86266 1.09925 7.69474C1.09925 9.52682 1.74048 11.0841 3.02293 12.3665C4.30539 13.649 5.86266 14.2902 7.69474 14.2902ZM3.29775 18.7356L7.69474 17.5033L12.0917 18.7356V13.9758C11.4791 14.4265 10.7979 14.7746 10.0482 15.0201C9.30001 15.2664 8.51551 15.3895 7.69474 15.3895C6.87397 15.3895 6.08947 15.2667 5.34125 15.0212C4.59303 14.7757 3.91186 14.4273 3.29775 13.9758V18.7356Z" fill="white"/>
</svg>
