<svg width="20" height="20" viewBox="0 0 20 20" fill="none" xmlns="http://www.w3.org/2000/svg">
<path d="M13.3334 4.99999C13.3334 3.42832 13.3334 2.64332 12.8451 2.15499C12.3567 1.66666 11.5717 1.66666 10.0001 1.66666C8.42841 1.66666 7.64341 1.66666 7.15508 2.15499C6.66675 2.64332 6.66675 3.42832 6.66675 4.99999M1.66675 11.6667C1.66675 8.52416 1.66675 6.95249 2.64341 5.97666C3.61925 4.99999 5.19091 4.99999 8.33341 4.99999H11.6667C14.8092 4.99999 16.3809 4.99999 17.3567 5.97666C18.3334 6.95249 18.3334 8.52416 18.3334 11.6667C18.3334 14.8092 18.3334 16.3808 17.3567 17.3567C16.3809 18.3333 14.8092 18.3333 11.6667 18.3333H8.33341C5.19091 18.3333 3.61925 18.3333 2.64341 17.3567C1.66675 16.3808 1.66675 14.8092 1.66675 11.6667Z" stroke="white"/>
<path d="M10.0002 14.4441C10.921 14.4441 11.6668 13.8225 11.6668 13.0558C11.6668 12.2891 10.921 11.6666 10.0002 11.6666C9.07933 11.6666 8.3335 11.045 8.3335 10.2775C8.3335 9.51081 9.07933 8.88915 10.0002 8.88915M10.0002 14.4441C9.07933 14.4441 8.3335 13.8225 8.3335 13.0558M10.0002 14.4441V15M10.0002 8.88915V8.33331M10.0002 8.88915C10.921 8.88915 11.6668 9.51081 11.6668 10.2775" stroke="white" stroke-linecap="round"/>
</svg>
