<svg width="16" height="16" viewBox="0 0 12 16" fill="none" xmlns="http://www.w3.org/2000/svg">
<path d="M5.50003 15V10.477C4.0667 10.257 2.93903 9.632 2.11703 8.602C1.29503 7.572 0.884033 6.37133 0.884033 5V0.815C0.884033 0.578333 0.9617 0.383333 1.11703 0.23C1.27237 0.0766667 1.46403 0 1.69203 0H10.308C10.5367 0 10.7284 0.0773332 10.883 0.232C11.0377 0.386667 11.1154 0.578667 11.116 0.808V5C11.116 6.372 10.705 7.57267 9.88303 8.602C9.06103 9.63133 7.93337 10.2563 6.50003 10.477V15H8.80803C8.94937 15 9.06803 15.048 9.16403 15.144C9.26003 15.24 9.30803 15.359 9.30803 15.501C9.30803 15.643 9.26003 15.7617 9.16403 15.857C9.06803 15.9523 8.94937 16 8.80803 16H3.19203C3.0507 16 2.93203 15.952 2.83603 15.856C2.74003 15.76 2.69203 15.641 2.69203 15.499C2.69203 15.357 2.74003 15.2383 2.83603 15.143C2.93203 15.0477 3.0507 15 3.19203 15H5.50003ZM6.00003 9.5C7.0487 9.5 7.9617 9.114 8.73903 8.342C9.51637 7.57 9.96337 6.62267 10.08 5.5H1.91903C2.03703 6.62333 2.4847 7.57067 3.26203 8.342C4.03937 9.11333 4.95203 9.49933 6.00003 9.5ZM1.88503 4.5H10.115V1H1.88503V4.5Z" fill="white"/>
</svg>
