<svg width="24" height="24" viewBox="0 0 24 24" fill="none" xmlns="http://www.w3.org/2000/svg">
<rect width="24" height="24" rx="4" fill="#488EF7"/>
<g clip-path="url(#clip0_195_693)">
<path fill-rule="evenodd" clip-rule="evenodd" d="M17.8327 6.32247C18.0181 6.24447 18.2209 6.21756 18.4202 6.24456C18.6195 6.27156 18.8079 6.35148 18.9658 6.47599C19.1237 6.6005 19.2453 6.76506 19.318 6.95254C19.3907 7.14001 19.4119 7.34355 19.3792 7.54197L17.6782 17.8597C17.5132 18.855 16.4212 19.4257 15.5085 18.93C14.745 18.5152 13.611 17.8762 12.591 17.2095C12.081 16.8757 10.5187 15.807 10.7107 15.0465C10.8758 14.3962 13.5007 11.9527 15.0007 10.5C15.5895 9.92922 15.321 9.59997 14.6257 10.125C12.8993 11.4285 10.1272 13.4107 9.21075 13.9687C8.40225 14.4607 7.98075 14.5447 7.47675 14.4607C6.55725 14.3077 5.7045 14.0707 5.0085 13.782C4.068 13.392 4.11375 12.099 5.00775 11.7225L17.8327 6.32247Z" fill="white"/>
</g>
<defs>
<clipPath id="clip0_195_693">
<rect width="18" height="18" fill="white" transform="translate(3 3)"/>
</clipPath>
</defs>
</svg>
