<svg width="24" height="24" viewBox="0 0 24 24" fill="none" xmlns="http://www.w3.org/2000/svg">
<rect width="24" height="24" rx="4" fill="#FFD137"/>
<path d="M10.1163 18.8849C11.5213 18.3403 11.2134 16.8389 10.503 15.8898C9.80055 14.9174 8.8297 14.2483 7.85095 13.6026C7.15247 13.169 6.52891 12.628 6.00395 12.0001C5.78295 11.7433 5.33304 11.2688 5.79084 11.1754C6.25653 11.0821 7.06163 11.5333 7.47208 11.7044C8.19035 12.0001 8.90073 12.3424 9.56376 12.7469L10.361 11.4244C9.12964 10.6231 7.55101 9.91517 6.08289 9.70512C5.24621 9.58065 4.36218 9.7518 4.07803 10.6464C3.82545 11.4166 4.228 12.1945 4.6858 12.8013C5.76716 14.225 7.4484 14.9096 8.70341 16.1387C8.97177 16.3955 9.29539 16.6989 9.45325 17.0567C9.61901 17.399 9.57954 17.4223 9.20857 17.4223C8.22982 17.4223 7.00638 16.6677 6.20918 16.1699L5.41197 17.4924C6.61962 18.2236 8.64026 19.3672 10.1163 18.8849ZM18.8698 6.74892C19.0434 6.57778 19.0434 6.29772 18.8698 6.13435L17.8437 5.12302C17.7612 5.04412 17.6508 5 17.5358 5C17.4209 5 17.3105 5.04412 17.228 5.12302L16.4229 5.91652L18.0647 7.53465M11.1029 11.1599V12.778H12.7447L17.599 7.99364L15.9572 6.37551L11.1029 11.1599Z" fill="white"/>
</svg>
