<svg width="24" height="24" viewBox="0 0 24 24" fill="none" xmlns="http://www.w3.org/2000/svg">
<rect width="24" height="24" rx="4" fill="black"/>
<path d="M18.474 11.1889C17.8526 8.37962 16.9174 6.88021 15.5302 6.47064C15.2386 6.38509 14.9362 6.34236 14.6323 6.34378C14.2306 6.34378 13.8808 6.44164 13.5108 6.54535C13.0649 6.67044 12.5584 6.81253 11.8198 6.81253C11.0812 6.81253 10.5744 6.67074 10.1276 6.54564C9.75729 6.44164 9.40778 6.34378 9.00729 6.34378C8.69306 6.34268 8.3802 6.38527 8.0777 6.47035C6.69782 6.87816 5.76325 8.37699 5.13278 11.1871C4.45485 14.2112 4.78854 16.1204 6.06852 16.5634C6.24397 16.6253 6.42858 16.6572 6.61462 16.6577C7.49147 16.6577 8.1946 15.9274 8.67507 15.3294C9.21794 14.6527 9.85339 14.3093 11.8198 14.3093C13.5761 14.3093 14.303 14.5475 14.9308 15.3294C15.3255 15.821 15.6984 16.165 16.0705 16.3815C16.5653 16.6692 17.0598 16.733 17.54 16.5681C18.2965 16.31 18.73 15.6277 18.8291 14.5396C18.9044 13.7052 18.7883 12.6092 18.474 11.1889ZM10.4135 11.0313H9.47604V11.9688C9.47604 12.0931 9.42666 12.2123 9.33875 12.3002C9.25084 12.3881 9.13161 12.4375 9.00729 12.4375C8.88297 12.4375 8.76374 12.3881 8.67584 12.3002C8.58793 12.2123 8.53854 12.0931 8.53854 11.9688V11.0313H7.60104C7.47672 11.0313 7.35749 10.9819 7.26959 10.894C7.18168 10.8061 7.13229 10.6869 7.13229 10.5625C7.13229 10.4382 7.18168 10.319 7.26959 10.2311C7.35749 10.1432 7.47672 10.0938 7.60104 10.0938H8.53854V9.15628C8.53854 9.03196 8.58793 8.91274 8.67584 8.82483C8.76374 8.73692 8.88297 8.68753 9.00729 8.68753C9.13161 8.68753 9.25084 8.73692 9.33875 8.82483C9.42666 8.91274 9.47604 9.03196 9.47604 9.15628V10.0938H10.4135C10.5379 10.0938 10.6571 10.1432 10.745 10.2311C10.8329 10.319 10.8823 10.4382 10.8823 10.5625C10.8823 10.6869 10.8329 10.8061 10.745 10.894C10.6571 10.9819 10.5379 11.0313 10.4135 11.0313ZM12.8745 11.1485C12.7586 11.1485 12.6453 11.1141 12.549 11.0497C12.4526 10.9853 12.3775 10.8938 12.3331 10.7868C12.2888 10.6797 12.2772 10.5619 12.2998 10.4482C12.3224 10.3346 12.3782 10.2302 12.4602 10.1482C12.5421 10.0663 12.6465 10.0105 12.7602 9.98786C12.8738 9.96525 12.9916 9.97685 13.0987 10.0212C13.2058 10.0655 13.2973 10.1406 13.3617 10.237C13.4261 10.3334 13.4604 10.4466 13.4604 10.5625C13.4604 10.7179 13.3987 10.867 13.2888 10.9769C13.1789 11.0867 13.0299 11.1485 12.8745 11.1485ZM14.1635 12.4375C14.0476 12.4375 13.9343 12.4031 13.8379 12.3387C13.7415 12.2742 13.6664 12.1826 13.6221 12.0755C13.5778 11.9683 13.5662 11.8504 13.589 11.7367C13.6117 11.623 13.6677 11.5186 13.7497 11.4368C13.8318 11.3549 13.9364 11.2992 14.0501 11.2767C14.1639 11.2543 14.2817 11.2661 14.3888 11.3107C14.4958 11.3553 14.5872 11.4306 14.6514 11.5271C14.7157 11.6237 14.7498 11.7371 14.7495 11.8531C14.7491 12.0082 14.6872 12.1569 14.5773 12.2664C14.4675 12.376 14.3187 12.4375 14.1635 12.4375ZM14.1635 9.85941C14.0477 9.85941 13.9344 9.82504 13.838 9.76066C13.7417 9.69628 13.6666 9.60477 13.6222 9.4977C13.5779 9.39063 13.5663 9.27282 13.5889 9.15916C13.6115 9.0455 13.6673 8.9411 13.7492 8.85915C13.8312 8.77721 13.9356 8.7214 14.0492 8.69879C14.1629 8.67618 14.2807 8.68779 14.3878 8.73214C14.4948 8.77648 14.5863 8.85159 14.6507 8.94794C14.7151 9.0443 14.7495 9.15758 14.7495 9.27347C14.7495 9.42887 14.6877 9.57791 14.5779 9.68779C14.468 9.79768 14.3189 9.85941 14.1635 9.85941ZM15.4526 11.1485C15.3367 11.1485 15.2234 11.1141 15.1271 11.0497C15.0307 10.9853 14.9556 10.8938 14.9113 10.7868C14.8669 10.6797 14.8553 10.5619 14.8779 10.4482C14.9005 10.3346 14.9563 10.2302 15.0383 10.1482C15.1202 10.0663 15.2246 10.0105 15.3383 9.98786C15.452 9.96525 15.5698 9.97685 15.6768 10.0212C15.7839 10.0655 15.8754 10.1406 15.9398 10.237C16.0042 10.3334 16.0385 10.4466 16.0385 10.5625C16.0385 10.7179 15.9768 10.867 15.8669 10.9769C15.757 11.0867 15.608 11.1485 15.4526 11.1485Z" fill="white"/>
</svg>
